<svg width="40" height="40" viewBox="0 0 40 40" fill="none" xmlns="http://www.w3.org/2000/svg">
<g clip-path="url(#clip0_26_270)">
<path d="M11.1111 5.77777H31.1111V7.49999H11.1111V5.77777Z" fill="#B700E0"/>
<path d="M32.2222 8.8889H10.9556C10.672 8.88488 10.3922 8.82347 10.133 8.70838C9.87385 8.59328 9.64067 8.42689 9.44755 8.21923C9.25442 8.01157 9.10536 7.76695 9.00935 7.50012C8.91333 7.23329 8.87236 6.94977 8.88889 6.66667C8.88751 6.10329 9.10016 5.56041 9.48383 5.14786C9.86751 4.73531 10.3936 4.48389 10.9556 4.44445H32.2222C32.5169 4.44445 32.7995 4.32739 33.0079 4.11901C33.2163 3.91064 33.3333 3.62803 33.3333 3.33334C33.3333 3.03866 33.2163 2.75604 33.0079 2.54767C32.7995 2.33929 32.5169 2.22223 32.2222 2.22223H10.9556C9.80398 2.26256 8.71309 2.74856 7.91294 3.57772C7.1128 4.40688 6.66596 5.5144 6.66667 6.66667C6.65554 6.84798 6.65554 7.02981 6.66667 7.21112C6.65596 7.29968 6.65596 7.38922 6.66667 7.47778V33.3333C6.66596 34.4856 7.1128 35.5931 7.91294 36.4223C8.71309 37.2515 9.80398 37.7375 10.9556 37.7778H32.2222C32.5169 37.7778 32.7995 37.6607 33.0079 37.4524C33.2163 37.244 33.3333 36.9614 33.3333 36.6667V10.0778C33.334 9.7755 33.2195 9.48431 33.0131 9.26346C32.8066 9.04261 32.5239 8.90867 32.2222 8.8889ZM31.1111 35.5556H10.9556C10.3936 35.5161 9.86751 35.2647 9.48383 34.8522C9.10016 34.4396 8.88751 33.8967 8.88889 33.3333V10.6111C9.52065 10.9596 10.2343 11.1323 10.9556 11.1111H31.1111V35.5556Z" fill="white"/>
</g>
<defs>
<clipPath id="clip0_26_270">
<rect width="40" height="40" fill="white"/>
</clipPath>
</defs>
</svg>
